<svg width="211" height="262" viewBox="0 0 211 262" fill="none" xmlns="http://www.w3.org/2000/svg">
<path d="M85.6253 221.817C82.7294 222.338 80.0067 222.982 77.5 223.743C67.1639 226.879 59 231.996 59 238.593C59 248.389 80.2255 256.553 104.716 256.553C130.84 256.553 152.066 248.389 152.066 238.593C152.066 231.551 146.129 227.278 133.5 223.743C130.839 222.998 127.993 222.371 125 221.88" stroke="#222222" stroke-width="10"/>
<path fill-rule="evenodd" clip-rule="evenodd" d="M106.229 5C161.742 5 205.826 50.7165 205.826 106.229C205.826 151.946 174.804 191.131 130.72 202.56C130.72 202.56 127.68 203.234 124.68 204.234C116.18 207.734 117.658 210.724 114.393 218.888L111.128 230.317L110.18 232.234C108.547 235.5 104.18 235.734 102.18 232.234L101.331 230.317L96.4329 218.888C93.1675 212.357 92.9761 206.5 83.1797 203.234C83.1797 203.234 79.2538 202.234 78.6797 202.234C36.2287 192.438 5 151.946 5 106.229C5 50.7165 50.7165 5 106.229 5Z" stroke="#222222" stroke-width="10"/>
<path d="M106.229 178.069C145.906 178.069 178.069 145.906 178.069 106.229C178.069 66.5531 145.906 34.3892 106.229 34.3892C66.5531 34.3892 34.3892 66.5531 34.3892 106.229C34.3892 145.906 66.5531 178.069 106.229 178.069Z" stroke="#222222" stroke-width="10"/>
<path d="M65.4111 91.5345L106.229 58.8799L147.048 91.5345M106.229 140.516V114.393M135.619 64V137.251M75.2075 83.6974V140.516H65.4111H147.048" stroke="#222222" stroke-width="10"/>
</svg>
