<svg width="249" height="232" viewBox="0 0 249 232" fill="none" xmlns="http://www.w3.org/2000/svg">
<path d="M133.328 106.959C133.328 98.1691 128 94.9996 124 93.9996C116.968 92.2417 111.142 94.9997 108.5 99.4999C107.283 101.573 107 103.742 107 105.5C107 107.258 107 112.5 114 116C114 116 116.508 116.767 120 117C127.5 117.5 130.481 120.673 132.239 124.189M105.201 126.296C105.201 135.085 108.717 138.601 113.991 140.359C121.022 142.117 128.054 140.359 131.57 135.085C132.293 134 133.328 132 133.328 129.812C133.328 126.296 132 120 125.5 118.064" stroke="#222222" stroke-width="10"/>
<path d="M121.022 92.8955V84.106" stroke="#222222" stroke-width="10"/>
<path d="M121.022 150.907V142.117" stroke="#222222" stroke-width="10"/>
<path d="M164.97 173.76C180.791 159.696 191.339 140.359 191.339 117.507C191.339 78.8325 159.696 45.4321 119.264 45.4321C80.5903 45.4321 47.1899 78.8325 47.1899 117.507C47.1899 142.117 61.2532 164.97 78.8324 177.276" stroke="#222222" stroke-width="10"/>
<path d="M140.359 163.212C157.939 154.422 168.486 138.601 168.486 117.506C168.486 91.1375 147.391 68.2847 119.265 68.2847C92.8958 68.2847 70.043 91.1375 70.043 117.506C70.043 138.601 82.3484 154.422 98.1696 163.212" stroke="#222222" stroke-width="10"/>
<path d="M80.0975 182.337L41.4235 171.79C33 169.5 25.5 170 20.3285 175.305C16.7272 179 14.5 186 19.5001 193.5C22 196.5 24.5 198.5 29.1181 199.916L78.3396 213.979C87.1292 215.737 97.6767 217.495 102.95 217.495L217.215 226.285M215.457 180.579H182.056C173.267 180.579 169.751 177.063 166.235 175.305L157.446 168.274C155.688 166.516 150.414 163 143.382 163H94.1608C87.0001 163.5 83.6448 165.468 81.5001 168.5C80.7927 169.5 75.5001 175 81.0001 184C83.0001 187 88.8871 189.369 94.1608 189.369H127.561" stroke="#222222" stroke-width="10"/>
<path d="M226.497 154.423C230.013 142.117 231.771 131.57 231.771 117.506C231.771 55.9794 180.791 5 117.506 5C55.9794 5 5 55.9794 5 117.506C5 130.136 7.24029 142.765 10.8267 154.5" stroke="#222222" stroke-width="10"/>
<path d="M214.191 138.601L226.497 156.18L245.834 145.633" stroke="#222222" stroke-width="10"/>
</svg>
