<svg width="236" height="233" viewBox="0 0 236 233" fill="none" xmlns="http://www.w3.org/2000/svg">
<path d="M217.693 113.547V106.213C217.693 50.4723 172.221 5 117.947 5C62.2072 5 16.7349 50.4723 16.7349 106.213C16.7349 107.679 16.7349 110.613 16.7349 113.547" stroke="#222222" stroke-width="10"/>
<path fill-rule="evenodd" clip-rule="evenodd" d="M134.083 62.2069C154.619 71.008 164.887 95.9445 154.619 116.48C147.284 134.083 129.682 142.884 110.613 139.95C106.213 139.95 104.746 141.417 101.812 142.884L98.8784 147.284C97.4115 148.751 95.9447 148.751 95.9447 145.817V139.95C95.9447 137.016 95.9447 135.549 93.011 132.616C78.3425 120.881 72.4751 100.345 79.8093 82.7428C90.0773 62.2069 113.547 53.4058 134.083 62.2069Z" stroke="#222222" stroke-width="10"/>
<path d="M200.091 113.547V106.213C198.624 62.2074 163.42 25.5361 117.947 25.5361C72.475 25.5361 35.8037 62.2074 35.8037 106.213V113.547" stroke="#222222" stroke-width="10"/>
<path d="M132 227.961H197.157C207.425 226.494 213.5 221 212.5 207M132 227.961C132 227.961 136.484 228.006 138 227C140.934 225.533 141.417 222.094 141.417 219.16V211.826C141.417 207.425 138.483 203.025 134.083 203.025H107.679C103.279 203.025 100.345 207.425 100.345 211.826V219.16C100.345 223.561 103.279 227.961 107.679 227.961H132Z" stroke="#222222" stroke-width="10"/>
<path d="M35.5703 113.547H16.7348C10.2538 113.547 5 118.801 5 125.282V195.576C5 202.057 10.2538 207.311 16.7348 207.311H35.5703C42.0513 207.311 47.3051 202.057 47.3051 195.576V125.282C47.3051 118.801 42.0513 113.547 35.5703 113.547Z" stroke="#222222" stroke-width="10"/>
<path d="M218.927 113.547H200.091C193.61 113.547 188.356 118.801 188.356 125.282V195.576C188.356 202.057 193.61 207.311 200.091 207.311H218.927C225.408 207.311 230.662 202.057 230.662 195.576V125.282C230.662 118.801 225.408 113.547 218.927 113.547Z" stroke="#222222" stroke-width="10"/>
<path fill-rule="evenodd" clip-rule="evenodd" d="M47.5386 128.215H60.7402C65.1408 128.215 69.5413 131.149 69.5413 137.016V185.422C69.5413 189.823 65.1408 194.224 60.7402 194.224H47.5386V128.215Z" stroke="#222222" stroke-width="10"/>
<path fill-rule="evenodd" clip-rule="evenodd" d="M188.356 128.215H175.155C170.754 128.215 166.354 131.149 166.354 137.016V185.422C166.354 189.823 170.754 194.224 175.155 194.224H188.356V128.215Z" stroke="#222222" stroke-width="10"/>
<path d="M100.345 91.5439H137.016" stroke="#222222" stroke-width="10"/>
<path d="M100.345 110.613H120.881" stroke="#222222" stroke-width="10"/>
</svg>
