<svg width="253" height="237" viewBox="0 0 253 237" fill="none" xmlns="http://www.w3.org/2000/svg">
<path fill-rule="evenodd" clip-rule="evenodd" d="M125.212 5C166.633 5 200 38.4179 200 79.9023C200 114.473 176.413 143.857 144.197 151.924C143.622 152.5 143.046 152.5 142.471 152.5C136.143 154.228 134.417 158.262 132.116 163.447L129.239 172.666C129.239 173.242 128.664 173.242 128.664 173.818C127.514 176.123 124.637 177.275 122.911 173.818C122.911 173.242 122.911 173.242 122.336 172.666L118.309 164.023C116.583 158.838 114.282 154.805 107.954 152.5C107.378 152.5 107.378 152.5 106.803 152.5C74.5869 143.857 51 115.049 51 79.9023C51 38.4179 84.3668 5 125.212 5Z" stroke="#222222" stroke-width="10"/>
<path d="M78.8369 235.563L74.6448 177.922C74.6448 174.778 74.1208 169.014 70.4528 164.822L48.4445 134.954C44.2524 130.762 40.5844 129.714 36.3924 130.238C31.6763 130.238 26.9602 133.906 26.4362 139.146C26.4362 143.862 28.0083 147.006 31.1523 150.674L50.0165 173.73M29.5803 133.382V110.849C29.5803 105.609 29.0563 100.369 25.9122 96.7012C22.2442 93.0332 15.4321 92.5092 11.7641 95.1292C8.09602 97.7492 6.52401 103.513 6 109.277L6.52401 147.53C6.52401 153.294 9.14404 158.01 11.7641 160.63L41.6324 200.978C44.2524 204.122 45.3005 205.695 45.8245 211.983V236.087" stroke="#222222" stroke-width="10"/>
<path d="M175 235.563L178.668 177.922C178.668 174.778 179.192 169.014 183.384 164.822L205.392 134.954C209.06 130.762 212.728 129.714 217.444 130.238C222.161 130.238 226.353 133.906 227.401 139.146C227.401 143.862 225.829 147.006 222.161 150.674L203.82 173.73M224.257 133.382V110.849C223.733 105.609 224.257 100.369 227.925 96.7012C231.593 93.0332 238.405 92.5092 242.073 95.1292C245.741 97.7492 246.789 103.513 247.313 109.277V147.53C247.313 153.294 244.169 158.01 242.073 160.63L211.68 200.978C209.06 204.122 208.012 205.695 207.488 211.983V236.087" stroke="#222222" stroke-width="10"/>
<path d="M125.21 108.567V65.9002C127.242 49.6501 152.632 40.0017 168.375 56.7595V101.955C158.264 94.6016 138.217 95.4254 126.605 104.691" stroke="#222222" stroke-width="10"/>
<path d="M157.71 81.1343H138.921" stroke="#222222" stroke-width="10"/>
<path d="M157.616 65.9932H138.921" stroke="#222222" stroke-width="10"/>
<path d="M125.191 100.33V65.9002C123.16 49.6501 97.769 40.0017 82.0268 56.7595V101.955C92.1376 94.6016 112.184 95.4254 123.796 104.691" stroke="#222222" stroke-width="10"/>
<path d="M92.6909 81.1343H111.48" stroke="#222222" stroke-width="10"/>
<path d="M92.6867 65.9932H103.355H111.48" stroke="#222222" stroke-width="10"/>
</svg>
