<svg width="214" height="234" viewBox="0 0 214 234" fill="none" xmlns="http://www.w3.org/2000/svg">
<path d="M108.377 51.4371C121.2 51.4371 131.595 41.0418 131.595 28.2185C131.595 15.3953 121.2 5 108.377 5C95.5535 5 85.1582 15.3953 85.1582 28.2185C85.1582 41.0418 95.5535 51.4371 108.377 51.4371Z" stroke="#332C2B" stroke-width="10"/>
<path fill-rule="evenodd" clip-rule="evenodd" d="M65.0015 111.907V78.9931C65.0015 58.5812 92.3024 51.437 107.356 51.437C122.665 51.437 150.476 59.0915 150.476 78.7379V113.438L65.0015 111.907Z" stroke="#332C2B" stroke-width="10"/>
<path d="M129.809 111.908V78.228" stroke="#332C2B" stroke-width="10"/>
<path d="M86.9438 111.908V78.228" stroke="#332C2B" stroke-width="10"/>
<path fill-rule="evenodd" clip-rule="evenodd" d="M45.8648 14.1851C57.3465 14.1851 66.787 23.6256 66.787 35.1073C66.787 46.8441 57.3465 56.2846 45.8648 56.2846C34.128 56.2846 24.6875 46.8441 24.6875 35.1073C24.6875 23.6256 34.128 14.1851 45.8648 14.1851Z" stroke="#332C2B" stroke-width="10"/>
<path fill-rule="evenodd" clip-rule="evenodd" d="M6.31689 112.163L6.57204 81.0344C6.57204 62.6637 34.1281 56.2849 44.8444 56.0298C55.5606 56.0298 63.7254 58.3261 72.1453 63.4291C67.8077 67.2563 65.0011 72.3593 65.0011 78.9932V111.907L83.8821 112.163H6.31689Z" stroke="#332C2B" stroke-width="10"/>
<path fill-rule="evenodd" clip-rule="evenodd" d="M65.0015 93.2814V80.5239V93.2814Z" stroke="#332C2B" stroke-width="10"/>
<path fill-rule="evenodd" clip-rule="evenodd" d="M26.2188 110.887V80.5239V110.887Z" stroke="#332C2B" stroke-width="10"/>
<path fill-rule="evenodd" clip-rule="evenodd" d="M169.868 16.2266C181.349 16.2266 190.79 25.6671 190.79 37.1488C190.79 48.6305 181.349 58.071 169.868 58.071C158.386 58.071 148.945 48.6305 148.945 37.1488C148.945 25.6671 158.386 16.2266 169.868 16.2266Z" stroke="#332C2B" stroke-width="10"/>
<path fill-rule="evenodd" clip-rule="evenodd" d="M143.332 64.45C151.497 59.8573 161.703 58.0713 169.102 58.0713C182.625 58.0713 207.885 64.9603 207.885 82.8207V114.204L150.476 113.183V79.7589C150.476 73.3802 147.67 68.2772 143.332 64.45Z" stroke="#332C2B" stroke-width="10"/>
<path fill-rule="evenodd" clip-rule="evenodd" d="M189.003 112.928V82.3101V112.928Z" stroke="#332C2B" stroke-width="10"/>
<path d="M208.905 126.706C208.65 182.583 163.233 228 107.356 228C51.2231 228 5.80664 182.583 5.80664 126.451" stroke="#222222" stroke-width="10"/>
<path d="M107.866 124.92V226.724C65.2564 216.008 51.7336 158.344 53.7748 125.685" stroke="#332C2B" stroke-width="10"/>
<path d="M12.1851 162.427C76.9928 184.114 139.759 183.349 202.781 162.427" stroke="#332C2B" stroke-width="10"/>
<path d="M3 127.982H211.457" stroke="#332C2B" stroke-width="10"/>
<path d="M107.356 124.92V226.724C149.711 216.008 163.489 158.344 161.447 125.685" stroke="#332C2B" stroke-width="10"/>
</svg>
